<svg xmlns="http://www.w3.org/2000/svg" xmlns:xlink="http://www.w3.org/1999/xlink" xmlns:lucid="lucid" width="800" height="480"><g transform="translate(-40 -60)" lucid:page-tab-id="mXwzAnnOLpm1"><path d="M60 82c0-1.1.9-2 2-2h356c1.1 0 2 .9 2 2v196c0 1.1-.9 2-2 2H62c-1.1 0-2-.9-2-2z" stroke="#d8d8d8" stroke-width="4" fill="#f2f2f2"/><use xlink:href="#a" transform="matrix(1,0,0,1,76,96) translate(0 14.4)"/><path d="M192.56 143.73H86.36c-3.48 0-6.36 3.2-6.36 6.75v74.14c0 3.54 2.88 6.75 6.36 6.75h36.36c3.84 13.84-1.32 15.72-24.36 15.72v7.4H176.6v-7.4c-23.04 0-25.32-1.9-21.48-15.73h37.44c3.6 0 7.44-3.2 7.44-6.75v-74.14c0-3.54-3.84-6.75-7.44-6.75zm-1.92 8.96v69.27H89V152.7h101.64z" stroke="#000" stroke-opacity="0" fill="#0078d7"/><path d="M157.28 174.6l-18.6-10.62-18.6 10.62v.33l18.6 10.63 18.6-10.96zM140.6 188.55v21.13l18.6-10.62v-21.14l-18.6 10.63zM136.76 188.55l-18.6-10.63v21.14l18.6 10.62v-21.13zM210.9 240.92c-.06-.13-.2-.2-.28-.35-.14-.05-.26-.13-.42-.13-.2 0-.34.08-.48.13-.14.08-.2.22-.34.3-.08.13-.16.26-.22.4-.06.16-.06.34-.06.56 0 .27 0 .48.06.6.08.23.16.36.22.44.06.13.2.2.34.2.14.07.28.07.42.07.14 0 .28 0 .34-.08.14-.06.2-.14.36-.27l.2-.4c.06-.17.06-.36.06-.65 0-.2 0-.35-.06-.54l-.14-.28z" stroke="#000" stroke-opacity="0" fill="#0078d7"/><path d="M210 227.66c-5.56 0-10 1.87-10 3.96v18.74c0 2.08 4.52 4.03 10 4.03 5.56 0 9.98-1.88 9.98-3.96V231.7c.08-2.1-4.42-4.04-9.98-4.04zm-3 15.7c0 .15-.06.26-.14.42-.06.13-.14.27-.28.35-.14.13-.26.18-.4.26-.16.07-.36.13-.64.2-.2.06-.48.06-.82.06h-.5c-.14 0-.28 0-.42-.05-.14 0-.28-.07-.34-.07-.14 0-.2-.08-.28-.14v-1.48c.08.08.2.14.34.22.16.05.22.13.36.18.14.08.28.08.42.17.14.04.26.04.42.04.14 0 .2 0 .26-.05.08 0 .16-.1.16-.1.06 0 .06-.08.06-.13v-.16c0-.04 0-.12-.06-.18-.08-.08-.08-.16-.16-.16-.06-.05-.14-.05-.26-.13-.16-.08-.22-.08-.36-.13-.2-.08-.42-.22-.62-.35-.14-.16-.28-.22-.42-.35-.14-.16-.2-.27-.2-.43-.08-.13-.08-.34-.08-.48 0-.28.08-.5.16-.7.14-.22.26-.43.42-.56.2-.14.4-.27.68-.35.28-.07.56-.15.92-.15h.48c.14 0 .28 0 .42.08.14 0 .2.06.34.06s.22.07.28.07v1.4c-.06-.1-.14-.1-.28-.15-.06-.08-.2-.08-.34-.16-.14-.05-.2-.05-.34-.05h-.42c-.2 0-.36 0-.42.06-.14.08-.14.16-.14.3 0 .05 0 .13.06.13 0 .07.08.07.14.13.08.08.16.08.22.16.06.04.2.04.34.12.2.08.42.2.62.27.2.15.34.2.5.33.14.14.2.27.34.43.06.14.14.35.14.62-.08.1-.16.24-.16.37zm4.1 2.64l-1.18-1.26c-.34 0-.7-.13-.96-.2-.28-.15-.56-.36-.78-.55-.2-.22-.4-.5-.54-.84-.14-.34-.2-.7-.2-1.12 0-.43.06-.83.2-1.17.14-.35.34-.65.54-.9.22-.3.56-.44.84-.57.36-.14.7-.2 1.12-.2.42 0 .76.06 1.04.2.34.13.62.34.84.56.2.18.42.53.54.83.14.33.2.68.2 1.16 0 .3 0 .64-.14.86-.06.26-.2.48-.34.7-.14.18-.28.4-.5.53-.2.13-.34.26-.62.42l1.82 1.53h-1.88zm5.98-1.4h-3.46v-5.34h1.6v4.12h1.88v1.23zM210 233.5c-3.96 0-7.14-.97-7.14-2.15 0-1.2 3.18-2.17 7.14-2.17 3.96 0 7.16.97 7.16 2.17 0 1.18-3.2 2.14-7.16 2.14z" stroke="#000" stroke-opacity="0" fill="#0078d7"/><path d="M240 132.93h160v96.4H240z" stroke="#000" stroke-opacity="0" stroke-width="2" fill="#fff" fill-opacity="0"/><use xlink:href="#b" transform="matrix(1,0,0,1,245,137.9264019861935) translate(0 14.69999999999999)"/><use xlink:href="#c" transform="matrix(1,0,0,1,245,137.9264019861935) translate(0 36.29999999999999)"/><use xlink:href="#d" transform="matrix(1,0,0,1,245,137.9264019861935) translate(72.01 36.29999999999999)"/><use xlink:href="#e" transform="matrix(1,0,0,1,245,137.9264019861935) translate(0 57.89999999999999)"/><use xlink:href="#f" transform="matrix(1,0,0,1,245,137.9264019861935) translate(72.01 57.89999999999999)"/><use xlink:href="#g" transform="matrix(1,0,0,1,245,137.9264019861935) translate(87.01 57.89999999999999)"/><use xlink:href="#h" transform="matrix(1,0,0,1,245,137.9264019861935) translate(0 79.5)"/><use xlink:href="#i" transform="matrix(1,0,0,1,245,137.9264019861935) translate(72.01 79.5)"/><use xlink:href="#j" transform="matrix(1,0,0,1,245,137.9264019861935) translate(97.01 79.5)"/><path d="M460 82c0-1.1.9-2 2-2h356c1.1 0 2 .9 2 2v196c0 1.1-.9 2-2 2H462c-1.1 0-2-.9-2-2z" stroke="#d8d8d8" stroke-width="4" fill="#f2f2f2"/><use xlink:href="#k" transform="matrix(1,0,0,1,476,96) translate(0 14.4)"/><use xlink:href="#l" transform="matrix(1,0,0,1,476,96) translate(62.5 14.4)"/><path d="M592.56 143.73h-106.2c-3.48 0-6.36 3.2-6.36 6.75v74.14c0 3.54 2.88 6.75 6.36 6.75h36.36c3.84 13.84-1.32 15.72-24.36 15.72v7.4H576.6v-7.4c-23.04 0-25.32-1.9-21.48-15.73h37.44c3.6 0 7.44-3.2 7.44-6.75v-74.14c0-3.54-3.84-6.75-7.44-6.75zm-1.92 8.96v69.27H489V152.7h101.64z" stroke="#000" stroke-opacity="0" fill="#0078d7"/><path d="M557.28 174.6l-18.6-10.62-18.6 10.62v.33l18.6 10.63 18.6-10.96zM540.6 188.55v21.13l18.6-10.62v-21.14l-18.6 10.63zM536.76 188.55l-18.6-10.63v21.14l18.6 10.62v-21.13z" stroke="#000" stroke-opacity="0" fill="#0078d7"/><path d="M640 132.93h160v96.4H640z" stroke="#000" stroke-opacity="0" stroke-width="2" fill="#fff" fill-opacity="0"/><use xlink:href="#m" transform="matrix(1,0,0,1,645,137.9264019861935) translate(0 14.69999999999999)"/><use xlink:href="#n" transform="matrix(1,0,0,1,645,137.9264019861935) translate(0 36.29999999999999)"/><use xlink:href="#o" transform="matrix(1,0,0,1,645,137.9264019861935) translate(72.01 36.29999999999999)"/><use xlink:href="#e" transform="matrix(1,0,0,1,645,137.9264019861935) translate(0 57.89999999999999)"/><use xlink:href="#p" transform="matrix(1,0,0,1,645,137.9264019861935) translate(72.01 57.89999999999999)"/><use xlink:href="#g" transform="matrix(1,0,0,1,645,137.9264019861935) translate(87.01 57.89999999999999)"/><use xlink:href="#h" transform="matrix(1,0,0,1,645,137.9264019861935) translate(0 79.5)"/><use xlink:href="#i" transform="matrix(1,0,0,1,645,137.9264019861935) translate(72.01 79.5)"/><use xlink:href="#j" transform="matrix(1,0,0,1,645,137.9264019861935) translate(97.01 79.5)"/><path d="M60 322c0-1.1.9-2 2-2h356c1.1 0 2 .9 2 2v196c0 1.1-.9 2-2 2H62c-1.1 0-2-.9-2-2z" stroke="#d8d8d8" stroke-width="4" fill="#f2f2f2"/><use xlink:href="#k" transform="matrix(1,0,0,1,76,336) translate(0 14.4)"/><use xlink:href="#q" transform="matrix(1,0,0,1,76,336) translate(62.5 14.4)"/><path d="M192.56 383.73H86.36c-3.48 0-6.36 3.2-6.36 6.75v74.14c0 3.54 2.88 6.75 6.36 6.75h36.36c3.84 13.84-1.32 15.72-24.36 15.72v7.4H176.6v-7.4c-23.04 0-25.32-1.9-21.48-15.73h37.44c3.6 0 7.44-3.2 7.44-6.75v-74.14c0-3.54-3.84-6.75-7.44-6.75zm-1.92 8.96v69.27H89V392.7h101.64z" stroke="#000" stroke-opacity="0" fill="#0078d7"/><path d="M157.28 414.6l-18.6-10.62-18.6 10.62v.33l18.6 10.63 18.6-10.96zM140.6 428.55v21.13l18.6-10.62v-21.14l-18.6 10.63zM136.76 428.55l-18.6-10.63v21.14l18.6 10.62v-21.13z" stroke="#000" stroke-opacity="0" fill="#0078d7"/><path d="M240 372.93h160v96.4H240z" stroke="#000" stroke-opacity="0" stroke-width="2" fill="#fff" fill-opacity="0"/><g><use xlink:href="#m" transform="matrix(1,0,0,1,245,377.9264019861935) translate(0 14.69999999999999)"/><use xlink:href="#n" transform="matrix(1,0,0,1,245,377.9264019861935) translate(0 36.29999999999999)"/><use xlink:href="#o" transform="matrix(1,0,0,1,245,377.9264019861935) translate(72.01 36.29999999999999)"/><use xlink:href="#e" transform="matrix(1,0,0,1,245,377.9264019861935) translate(0 57.89999999999999)"/><use xlink:href="#p" transform="matrix(1,0,0,1,245,377.9264019861935) translate(72.01 57.89999999999999)"/><use xlink:href="#g" transform="matrix(1,0,0,1,245,377.9264019861935) translate(87.01 57.89999999999999)"/><use xlink:href="#h" transform="matrix(1,0,0,1,245,377.9264019861935) translate(0 79.5)"/><use xlink:href="#i" transform="matrix(1,0,0,1,245,377.9264019861935) translate(72.01 79.5)"/><use xlink:href="#j" transform="matrix(1,0,0,1,245,377.9264019861935) translate(97.01 79.5)"/></g><path d="M460 322c0-1.1.9-2 2-2h356c1.1 0 2 .9 2 2v196c0 1.1-.9 2-2 2H462c-1.1 0-2-.9-2-2z" stroke="#d8d8d8" stroke-width="4" fill="#f2f2f2"/><g><use xlink:href="#k" transform="matrix(1,0,0,1,476,336) translate(0 14.4)"/><use xlink:href="#r" transform="matrix(1,0,0,1,476,336) translate(62.5 14.4)"/></g><path d="M592.56 383.73h-106.2c-3.48 0-6.36 3.2-6.36 6.75v74.14c0 3.54 2.88 6.75 6.36 6.75h36.36c3.84 13.84-1.32 15.72-24.36 15.72v7.4H576.6v-7.4c-23.04 0-25.32-1.9-21.48-15.73h37.44c3.6 0 7.44-3.2 7.44-6.75v-74.14c0-3.54-3.84-6.75-7.44-6.75zm-1.92 8.96v69.27H489V392.7h101.64z" stroke="#000" stroke-opacity="0" fill="#0078d7"/><path d="M557.28 414.6l-18.6-10.62-18.6 10.62v.33l18.6 10.63 18.6-10.96zM540.6 428.55v21.13l18.6-10.62v-21.14l-18.6 10.63zM536.76 428.55l-18.6-10.63v21.14l18.6 10.62v-21.13z" stroke="#000" stroke-opacity="0" fill="#0078d7"/><path d="M640 372.93h160v96.4H640z" stroke="#000" stroke-opacity="0" stroke-width="2" fill="#fff" fill-opacity="0"/><g><use xlink:href="#m" transform="matrix(1,0,0,1,645,377.9264019861935) translate(0 14.69999999999999)"/><use xlink:href="#n" transform="matrix(1,0,0,1,645,377.9264019861935) translate(0 36.29999999999999)"/><use xlink:href="#o" transform="matrix(1,0,0,1,645,377.9264019861935) translate(72.01 36.29999999999999)"/><use xlink:href="#e" transform="matrix(1,0,0,1,645,377.9264019861935) translate(0 57.89999999999999)"/><use xlink:href="#p" transform="matrix(1,0,0,1,645,377.9264019861935) translate(72.01 57.89999999999999)"/><use xlink:href="#g" transform="matrix(1,0,0,1,645,377.9264019861935) translate(87.01 57.89999999999999)"/><use xlink:href="#h" transform="matrix(1,0,0,1,645,377.9264019861935) translate(0 79.5)"/><use xlink:href="#i" transform="matrix(1,0,0,1,645,377.9264019861935) translate(72.01 79.5)"/><use xlink:href="#j" transform="matrix(1,0,0,1,645,377.9264019861935) translate(97.01 79.5)"/></g><path d="M280 80h140v60H280z" stroke="#000" stroke-opacity="0" stroke-width="2" fill="#fff" fill-opacity="0"/><g><use xlink:href="#s" transform="matrix(1,0,0,1,285,85) translate(7.5 28.6)"/></g><path d="M680 80h140v60H680z" stroke="#000" stroke-opacity="0" stroke-width="2" fill="#fff" fill-opacity="0"/><g><use xlink:href="#t" transform="matrix(1,0,0,1,685,85) translate(7.5 28.6)"/></g><path d="M280 320h140v60H280z" stroke="#000" stroke-opacity="0" stroke-width="2" fill="#fff" fill-opacity="0"/><g><use xlink:href="#u" transform="matrix(1,0,0,1,285,325) translate(7.5 28.6)"/></g><path d="M680 320h140v60H680z" stroke="#000" stroke-opacity="0" stroke-width="2" fill="#fff" fill-opacity="0"/><g><use xlink:href="#v" transform="matrix(1,0,0,1,685,325) translate(7.5 28.6)"/></g><defs><path d="M240 0l2-218c-23 76-54 145-80 218h-23L58-218 59 0H30v-248h44l77 211c21-75 51-140 76-211h43V0h-30" id="w"/><path d="M141-36C126-15 110 5 73 4 37 3 15-17 15-53c-1-64 63-63 125-63 3-35-9-54-41-54-24 1-41 7-42 31l-33-3c5-37 33-52 76-52 45 0 72 20 72 64v82c-1 20 7 32 28 27v20c-31 9-61-2-59-35zM48-53c0 20 12 33 32 33 41-3 63-29 60-74-43 2-92-5-92 41" id="x"/><path d="M117-194c89-4 53 116 60 194h-32v-121c0-31-8-49-39-48C34-167 62-67 57 0H25l-1-190h30c1 10-1 24 2 32 11-22 29-35 61-36" id="y"/><path d="M177-190C167-65 218 103 67 71c-23-6-38-20-44-43l32-5c15 47 100 32 89-28v-30C133-14 115 1 83 1 29 1 15-40 15-95c0-56 16-97 71-98 29-1 48 16 59 35 1-10 0-23 2-32h30zM94-22c36 0 50-32 50-73 0-42-14-75-50-75-39 0-46 34-46 75s6 73 46 73" id="z"/><path d="M100-194c63 0 86 42 84 106H49c0 40 14 67 53 68 26 1 43-12 49-29l28 8c-11 28-37 45-77 45C44 4 14-33 15-96c1-61 26-98 85-98zm52 81c6-60-76-77-97-28-3 7-6 17-6 28h103" id="A"/><path d="M114-163C36-179 61-72 57 0H25l-1-190h30c1 12-1 29 2 39 6-27 23-49 58-41v29" id="B"/><g id="a"><use transform="matrix(0.05,0,0,0.05,0,0)" xlink:href="#w"/><use transform="matrix(0.05,0,0,0.05,14.950000000000001,0)" xlink:href="#x"/><use transform="matrix(0.05,0,0,0.05,24.950000000000003,0)" xlink:href="#y"/><use transform="matrix(0.05,0,0,0.05,34.95,0)" xlink:href="#x"/><use transform="matrix(0.05,0,0,0.05,44.95,0)" xlink:href="#z"/><use transform="matrix(0.05,0,0,0.05,54.95,0)" xlink:href="#A"/><use transform="matrix(0.05,0,0,0.05,64.95,0)" xlink:href="#B"/></g><path d="M67-125c0 53 21 87 73 88 37 1 54-22 65-47l45 17C233-25 199 4 140 4 58 4 20-42 15-125 8-235 124-281 211-232c18 10 29 29 36 50l-46 12c-8-25-30-41-62-41-52 0-71 34-72 86" id="C"/><path d="M110-194c64 0 96 36 96 99 0 64-35 99-97 99-61 0-95-36-95-99 0-62 34-99 96-99zm-1 164c35 0 45-28 45-65 0-40-10-65-43-65-34 0-45 26-45 65 0 36 10 65 43 65" id="D"/><path d="M135-150c-39-12-60 13-60 57V0H25l-1-190h47c2 13-1 29 3 40 6-28 27-53 61-41v41" id="E"/><path d="M185-48c-13 30-37 53-82 52C43 2 14-33 14-96s30-98 90-98c62 0 83 45 84 108H66c0 31 8 55 39 56 18 0 30-7 34-22zm-45-69c5-46-57-63-70-21-2 6-4 13-4 21h74" id="F"/><path d="M137-138c1-29-70-34-71-4 15 46 118 7 119 86 1 83-164 76-172 9l43-7c4 19 20 25 44 25 33 8 57-30 24-41C81-84 22-81 20-136c-2-80 154-74 161-7" id="G"/><g id="c"><use transform="matrix(0.05,0,0,0.05,0,0)" xlink:href="#C"/><use transform="matrix(0.05,0,0,0.05,12.950000000000001,0)" xlink:href="#D"/><use transform="matrix(0.05,0,0,0.05,23.900000000000002,0)" xlink:href="#E"/><use transform="matrix(0.05,0,0,0.05,30.900000000000002,0)" xlink:href="#F"/><use transform="matrix(0.05,0,0,0.05,40.900000000000006,0)" xlink:href="#G"/></g><path d="M155-56V0h-30v-56H8v-25l114-167h33v167h35v25h-35zm-30-156c-27 46-58 90-88 131h88v-131" id="H"/><use transform="matrix(0.05,0,0,0.05,0,0)" xlink:href="#H" id="d"/><path d="M240-174c0 40-23 61-54 70L253 0h-59l-57-94H76V0H24v-248c93 4 217-23 216 74zM76-134c48-2 112 12 112-38 0-48-66-32-112-35v73" id="I"/><path d="M199 0l-22-63H83L61 0H9l90-248h61L250 0h-51zm-33-102l-36-108c-10 38-24 72-36 108h72" id="J"/><path d="M230 0l2-204L168 0h-37L68-204 70 0H24v-248h70l56 185 57-185h69V0h-46" id="K"/><g id="e"><use transform="matrix(0.05,0,0,0.05,0,0)" xlink:href="#I"/><use transform="matrix(0.05,0,0,0.05,12.950000000000001,0)" xlink:href="#J"/><use transform="matrix(0.05,0,0,0.05,25.900000000000002,0)" xlink:href="#K"/></g><path d="M134-131c28 9 52 24 51 62-1 50-34 73-85 73S17-19 16-69c0-36 21-54 49-61-75-25-45-126 34-121 46 3 78 18 79 63 0 33-17 51-44 57zm-34-11c31 1 46-15 46-44 0-28-17-43-47-42-29 0-46 13-45 42 1 28 16 44 46 44zm1 122c35 0 51-18 51-52 0-30-18-46-53-46-33 0-51 17-51 47 0 34 19 51 53 51" id="L"/><use transform="matrix(0.05,0,0,0.05,0,0)" xlink:href="#L" id="f"/><path d="M143 4C61 4 22-44 18-125c-5-107 100-154 193-111 17 8 29 25 37 43l-32 9c-13-25-37-40-76-40-61 0-88 39-88 99 0 61 29 100 91 101 35 0 62-11 79-27v-45h-74v-28h105v86C228-13 192 4 143 4" id="M"/><path d="M160-131c35 5 61 23 61 61C221 17 115-2 30 0v-248c76 3 177-17 177 60 0 33-19 50-47 57zm-97-11c50-1 110 9 110-42 0-47-63-36-110-37v79zm0 115c55-2 124 14 124-45 0-56-70-42-124-44v89" id="N"/><g id="g"><use transform="matrix(0.05,0,0,0.05,0,0)" xlink:href="#M"/><use transform="matrix(0.05,0,0,0.05,14,0)" xlink:href="#N"/></g><path d="M24-248c120-7 223 5 221 122C244-46 201 0 124 0H24v-248zM76-40c74 7 117-18 117-86 0-67-45-88-117-82v168" id="O"/><path d="M25-224v-37h50v37H25zM25 0v-190h50V0H25" id="P"/><path d="M147 0L96-86 75-71V0H25v-261h50v150l67-79h53l-66 74L201 0h-54" id="Q"/><g id="h"><use transform="matrix(0.05,0,0,0.05,0,0)" xlink:href="#O"/><use transform="matrix(0.05,0,0,0.05,12.950000000000001,0)" xlink:href="#P"/><use transform="matrix(0.05,0,0,0.05,17.950000000000003,0)" xlink:href="#G"/><use transform="matrix(0.05,0,0,0.05,27.950000000000003,0)" xlink:href="#Q"/></g><path d="M101-251c68 0 85 55 85 127S166 4 100 4C33 4 14-52 14-124c0-73 17-127 87-127zm-1 229c47 0 54-49 54-102s-4-102-53-102c-51 0-55 48-55 102 0 53 5 102 54 102" id="R"/><g id="i"><use transform="matrix(0.05,0,0,0.05,0,0)" xlink:href="#H"/><use transform="matrix(0.05,0,0,0.05,10,0)" xlink:href="#R"/></g><g id="j"><use transform="matrix(0.05,0,0,0.05,0,0)" xlink:href="#M"/><use transform="matrix(0.05,0,0,0.05,14,0)" xlink:href="#N"/></g><path d="M266 0h-40l-56-210L115 0H75L2-248h35L96-30l15-64 43-154h32l59 218 59-218h35" id="S"/><path d="M100-194c62-1 85 37 85 99 1 63-27 99-86 99S16-35 15-95c0-66 28-99 85-99zM99-20c44 1 53-31 53-75 0-43-8-75-51-75s-53 32-53 75 10 74 51 75" id="T"/><path d="M143 0L79-87 56-68V0H24v-261h32v163l83-92h37l-77 82L181 0h-38" id="U"/><g id="k"><use transform="matrix(0.05,0,0,0.05,0,0)" xlink:href="#S"/><use transform="matrix(0.05,0,0,0.05,16.599999999999998,0)" xlink:href="#T"/><use transform="matrix(0.05,0,0,0.05,26.599999999999994,0)" xlink:href="#B"/><use transform="matrix(0.05,0,0,0.05,32.55,0)" xlink:href="#U"/><use transform="matrix(0.05,0,0,0.05,41.55,0)" xlink:href="#A"/><use transform="matrix(0.05,0,0,0.05,51.54999999999999,0)" xlink:href="#B"/></g><path d="M27 0v-27h64v-190l-56 39v-29l58-41h29v221h61V0H27" id="V"/><g id="l"><use transform="matrix(0.05,0,0,0.05,0,0)" xlink:href="#R"/><use transform="matrix(0.05,0,0,0.05,10,0)" xlink:href="#V"/></g><g id="n"><use transform="matrix(0.05,0,0,0.05,0,0)" xlink:href="#C"/><use transform="matrix(0.05,0,0,0.05,12.950000000000001,0)" xlink:href="#D"/><use transform="matrix(0.05,0,0,0.05,23.900000000000002,0)" xlink:href="#E"/><use transform="matrix(0.05,0,0,0.05,30.900000000000002,0)" xlink:href="#F"/><use transform="matrix(0.05,0,0,0.05,40.900000000000006,0)" xlink:href="#G"/></g><path d="M101-251c82-7 93 87 43 132L82-64C71-53 59-42 53-27h129V0H18c2-99 128-94 128-182 0-28-16-43-45-43s-46 15-49 41l-32-3c6-41 34-60 81-64" id="W"/><use transform="matrix(0.05,0,0,0.05,0,0)" xlink:href="#W" id="o"/><use transform="matrix(0.05,0,0,0.05,0,0)" xlink:href="#W" id="p"/><g id="q"><use transform="matrix(0.05,0,0,0.05,0,0)" xlink:href="#R"/><use transform="matrix(0.05,0,0,0.05,10,0)" xlink:href="#W"/></g><path d="M126-127c33 6 58 20 58 59 0 88-139 92-164 29-3-8-5-16-6-25l32-3c6 27 21 44 54 44 32 0 52-15 52-46 0-38-36-46-79-43v-28c39 1 72-4 72-42 0-27-17-43-46-43-28 0-47 15-49 41l-32-3c6-42 35-63 81-64 48-1 79 21 79 65 0 36-21 52-52 59" id="X"/><g id="r"><use transform="matrix(0.05,0,0,0.05,0,0)" xlink:href="#R"/><use transform="matrix(0.05,0,0,0.05,10,0)" xlink:href="#X"/></g><path d="M99-251c64 0 84 50 84 122C183-37 130 33 47-8c-14-7-20-23-25-40l30-5c6 39 69 39 84 7 9-19 16-44 16-74-10 22-31 35-62 35-49 0-73-33-73-83 0-54 28-83 82-83zm-1 141c31-1 51-18 51-49 0-36-14-67-51-67-34 0-49 23-49 58 0 34 15 58 49 58" id="Y"/><path d="M33 0v-38h34V0H33" id="Z"/><path d="M110-160c48 1 74 30 74 79 0 53-28 85-80 85-65 0-83-55-86-122-5-90 50-162 133-122 14 7 22 21 27 39l-31 6c-5-40-67-38-82-6-9 19-15 44-15 74 11-20 30-34 60-33zm-7 138c34 0 49-23 49-58s-16-56-50-56c-29 0-50 16-49 49 1 36 15 65 50 65" id="aa"/><g id="s"><use transform="matrix(0.05,0,0,0.05,0,0)" xlink:href="#V"/><use transform="matrix(0.05,0,0,0.05,10,0)" xlink:href="#Y"/><use transform="matrix(0.05,0,0,0.05,20,0)" xlink:href="#W"/><use transform="matrix(0.05,0,0,0.05,30,0)" xlink:href="#Z"/><use transform="matrix(0.05,0,0,0.05,35,0)" xlink:href="#V"/><use transform="matrix(0.05,0,0,0.05,45,0)" xlink:href="#aa"/><use transform="matrix(0.05,0,0,0.05,55,0)" xlink:href="#L"/><use transform="matrix(0.05,0,0,0.05,65,0)" xlink:href="#Z"/><use transform="matrix(0.05,0,0,0.05,70,0)" xlink:href="#X"/><use transform="matrix(0.05,0,0,0.05,80,0)" xlink:href="#Z"/><use transform="matrix(0.05,0,0,0.05,85,0)" xlink:href="#W"/><use transform="matrix(0.05,0,0,0.05,95,0)" xlink:href="#R"/><use transform="matrix(0.05,0,0,0.05,105,0)" xlink:href="#R"/></g><g id="t"><use transform="matrix(0.05,0,0,0.05,0,0)" xlink:href="#V"/><use transform="matrix(0.05,0,0,0.05,10,0)" xlink:href="#Y"/><use transform="matrix(0.05,0,0,0.05,20,0)" xlink:href="#W"/><use transform="matrix(0.05,0,0,0.05,30,0)" xlink:href="#Z"/><use transform="matrix(0.05,0,0,0.05,35,0)" xlink:href="#V"/><use transform="matrix(0.05,0,0,0.05,45,0)" xlink:href="#aa"/><use transform="matrix(0.05,0,0,0.05,55,0)" xlink:href="#L"/><use transform="matrix(0.05,0,0,0.05,65,0)" xlink:href="#Z"/><use transform="matrix(0.05,0,0,0.05,70,0)" xlink:href="#X"/><use transform="matrix(0.05,0,0,0.05,80,0)" xlink:href="#Z"/><use transform="matrix(0.05,0,0,0.05,85,0)" xlink:href="#W"/><use transform="matrix(0.05,0,0,0.05,95,0)" xlink:href="#R"/><use transform="matrix(0.05,0,0,0.05,105,0)" xlink:href="#V"/></g><g id="u"><use transform="matrix(0.05,0,0,0.05,0,0)" xlink:href="#V"/><use transform="matrix(0.05,0,0,0.05,10,0)" xlink:href="#Y"/><use transform="matrix(0.05,0,0,0.05,20,0)" xlink:href="#W"/><use transform="matrix(0.05,0,0,0.05,30,0)" xlink:href="#Z"/><use transform="matrix(0.05,0,0,0.05,35,0)" xlink:href="#V"/><use transform="matrix(0.05,0,0,0.05,45,0)" xlink:href="#aa"/><use transform="matrix(0.05,0,0,0.05,55,0)" xlink:href="#L"/><use transform="matrix(0.05,0,0,0.05,65,0)" xlink:href="#Z"/><use transform="matrix(0.05,0,0,0.05,70,0)" xlink:href="#X"/><use transform="matrix(0.05,0,0,0.05,80,0)" xlink:href="#Z"/><use transform="matrix(0.05,0,0,0.05,85,0)" xlink:href="#W"/><use transform="matrix(0.05,0,0,0.05,95,0)" xlink:href="#R"/><use transform="matrix(0.05,0,0,0.05,105,0)" xlink:href="#W"/></g><g id="v"><use transform="matrix(0.05,0,0,0.05,0,0)" xlink:href="#V"/><use transform="matrix(0.05,0,0,0.05,10,0)" xlink:href="#Y"/><use transform="matrix(0.05,0,0,0.05,20,0)" xlink:href="#W"/><use transform="matrix(0.05,0,0,0.05,30,0)" xlink:href="#Z"/><use transform="matrix(0.05,0,0,0.05,35,0)" xlink:href="#V"/><use transform="matrix(0.05,0,0,0.05,45,0)" xlink:href="#aa"/><use transform="matrix(0.05,0,0,0.05,55,0)" xlink:href="#L"/><use transform="matrix(0.05,0,0,0.05,65,0)" xlink:href="#Z"/><use transform="matrix(0.05,0,0,0.05,70,0)" xlink:href="#X"/><use transform="matrix(0.05,0,0,0.05,80,0)" xlink:href="#Z"/><use transform="matrix(0.05,0,0,0.05,85,0)" xlink:href="#W"/><use transform="matrix(0.05,0,0,0.05,95,0)" xlink:href="#R"/><use transform="matrix(0.05,0,0,0.05,105,0)" xlink:href="#X"/></g></defs></g></svg>